<svg height="512pt" viewBox="0 0 512 512.00027" width="512pt" xmlns="http://www.w3.org/2000/svg"><path d="m486.078125 123.53125-7.476563-7.476562c16.382813-23.125 14.238282-55.441407-6.460937-76.140626-11.15625-11.15625-26.039063-17.300781-41.910156-17.300781-12.464844 0-24.3125 3.804688-34.234375 10.835938l-7.472656-7.472657c-34.636719-34.636718-90.996094-34.636718-125.632813 0l-19.191406 19.191407c-3.90625 3.90625-3.90625 10.238281 0 14.144531 3.902343 3.902344 10.234375 3.902344 14.140625 0l19.191406-19.195312c26.839844-26.835938 70.511719-26.835938 97.351562 0l6.863282 6.867187-334.261719 334.265625-6.867187-6.867188c-26.835938-26.839843-26.835938-70.511718 0-97.347656l168.964843-168.960937c3.902344-3.90625 3.902344-10.238281 0-14.144531-3.90625-3.902344-10.238281-3.902344-14.140625 0l-168.964844 168.964843c-34.636718 34.636719-34.636718 90.992188 0 125.628907l7.472657 7.476562c-7.03125 9.917969-10.835938 21.765625-10.835938 34.230469 0 15.871093 6.144531 30.753906 17.300781 41.910156 11.554688 11.554687 26.730469 17.332031 41.910157 17.332031 12.007812 0 24.015625-3.632812 34.230469-10.871094l7.476562 7.476563c16.714844 16.714844 39.023438 25.921875 62.8125 25.921875s46.097656-9.207031 62.816406-25.921875l236.914063-236.917969c16.71875-16.714844 25.925781-39.023437 25.925781-62.8125 0-23.792968-9.207031-46.101562-25.921875-62.816406zm-57.617187 47.265625c2.007812 4.242187.5 12.390625-6.25 19.144531-6.75 6.75-14.902344 8.261719-19.144532 6.25-.78125-.371094-1.578125-.703125-2.386718-.996094l26.785156-26.785156c.296875.808594.625 1.605469.996094 2.386719zm-77.421876 77.421875c2.007813 4.242188.5 12.394531-6.25 19.144531s-14.902343 8.261719-19.148437 6.25c-.777344-.371093-1.574219-.699219-2.382813-.996093l26.785157-26.785157c.292969.8125.625 1.605469.996093 2.386719zm-77.425781 77.421875c2.007813 4.242187.5 12.398437-6.25 19.148437s-14.902343 8.261719-19.144531 6.246094c-.78125-.367187-1.574219-.699218-2.382812-.992187l26.78125-26.785157c.296874.808594.625 1.605469.996093 2.382813zm-77.421875 77.425781c2.007813 4.242188.5 12.394532-6.25 19.144532s-14.90625 8.261718-19.144531 6.25c-.78125-.371094-1.578125-.699219-2.386719-.996094l26.785156-26.785156c.292969.808593.625 1.605468.996094 2.386718zm-142.136718 54.933594c-7.378907-7.378906-11.441407-17.242188-11.441407-27.769531 0-10.527344 4.058594-20.382813 11.433594-27.761719.003906-.003906.007813-.003906.007813-.007812l348.40625-348.40625s0-.003907.003906-.003907c7.375-7.375 17.238281-11.441406 27.765625-11.441406 10.527343 0 20.390625 4.066406 27.769531 11.445313 15.3125 15.3125 15.3125 40.226562 0 55.539062l-348.40625 348.40625c-.003906 0-.003906.003906-.007812.007812-15.3125 15.304688-40.222657 15.304688-55.53125-.007812zm417.882812-222.980469-236.917969 236.914063c-12.9375 12.941406-30.222656 20.066406-48.671875 20.066406-18.449218 0-35.734375-7.125-48.675781-20.066406l-6.867187-6.863282 12.285156-12.285156c6.753906-6.753906 14.902344-8.257812 19.148437-6.25 12.851563 6.085938 29.667969 1.992188 41.84375-10.183594 12.175781-12.175781 16.269531-28.992187 10.183594-41.847656-2.007813-4.238281-.503906-12.386718 6.242187-19.132812l.015626-.019532c6.75-6.742187 14.894531-8.25 19.136718-6.242187 12.855469 6.089844 29.667969 1.996094 41.847656-10.183594 12.175782-12.175781 16.265626-28.992187 10.179688-41.84375-2.007812-4.238281-.5-12.386719 6.242188-19.136719l.019531-.015624c6.746093-6.746094 14.894531-8.25 19.136719-6.242188 12.851562 6.085938 29.667968 1.992188 41.84375-10.183594 12.179687-12.179687 16.269531-28.996094 10.183593-41.84375-2.007812-4.242187-.5-12.394531 6.25-19.148437 6.75-6.75 14.902344-8.257813 19.144531-6.246094 12.851563 6.085937 29.667969 1.992187 41.84375-10.183594 12.179688-12.179687 16.269532-28.996093 10.183594-41.847656-2.007812-4.242187-.5-12.394531 6.25-19.144531.003906 0 .003906-.003906.007813-.003906l12.28125-12.28125 6.863281 6.867187c12.941406 12.9375 20.066406 30.226563 20.066406 48.675781 0 18.449219-7.128906 35.734375-20.066406 48.671875zm0 0"/><path d="m222.320312 90.6875c2.570313 0 5.136719-.984375 7.089844-2.945312l.191406-.191407c3.894532-3.914062 3.878907-10.246093-.039062-14.140625-3.914062-3.894531-10.242188-3.878906-14.140625.035156l-.1875.191407c-3.894531 3.914062-3.878906 10.246093.035156 14.140625 1.949219 1.941406 4.503907 2.910156 7.050781 2.910156zm0 0"/><path d="m114.550781 433.921875c9.984375-9.984375 12.027344-25.496094 4.96875-37.726563-2.542969-4.402343-1.808593-9.988281 1.785157-13.582031 3.597656-3.597656 9.183593-4.335937 13.589843-1.789062 12.226563 7.058593 27.742188 5.015625 37.722657-4.96875 9.984374-9.984375 12.027343-25.5 4.96875-37.726563-2.542969-4.402344-1.808594-9.988281 1.789062-13.585937 3.59375-3.59375 9.179688-4.332031 13.585938-1.789063 12.226562 7.0625 27.742187 5.019532 37.722656-4.964844 9.984375-9.984374 12.027344-25.5 4.96875-37.726562-2.542969-4.402344-1.808594-9.988281 1.789062-13.585938 3.59375-3.59375 9.183594-4.332031 13.585938-1.789062 12.226562 7.058594 27.742187 5.019531 37.726562-4.964844 9.980469-9.984375 12.023438-25.5 4.964844-37.726562-2.542969-4.40625-1.808594-9.992188 1.789062-13.585938 3.597657-3.597656 9.183594-4.332031 13.585938-1.789062 12.230469 7.058594 27.742188 5.019531 37.726562-4.964844 9.984376-9.988281 12.023438-25.5 4.964844-37.726562-2.542968-4.40625-1.804687-9.992188 1.789063-13.589844 3.597656-3.59375 9.183593-4.328125 13.585937-1.785156 12.230469 7.058593 27.742188 5.015624 37.726563-4.96875 9.984375-9.984376 12.027343-25.496094 4.964843-37.726563-2.539062-4.402344-1.804687-9.988281 1.789063-13.585937 3.597656-3.59375 9.183594-4.332032 13.585937-1.789063 4.785157 2.761719 10.898438 1.125 13.660157-3.65625 2.761719-4.785156 1.121093-10.898437-3.660157-13.660156-12.226562-7.058594-27.742187-5.019531-37.726562 4.964843-9.984375 9.984376-12.027344 25.5-4.964844 37.726563 2.542969 4.402344 1.804688 9.992187-1.789062 13.585937-3.597656 3.597657-9.183594 4.332032-13.585938 1.789063-12.230468-7.058594-27.742187-5.019531-37.726562 4.964844-9.984375 9.988281-12.023438 25.5-4.964844 37.726562 2.542969 4.40625 1.804688 9.992188-1.789062 13.589844-3.59375 3.59375-9.183594 4.328125-13.585938 1.785156-12.230469-7.058593-27.742188-5.015625-37.726562 4.96875-9.984376 9.984375-12.027344 25.496094-4.964844 37.726563 2.539062 4.402344 1.804687 9.988281-1.789063 13.585937-3.597656 3.59375-9.183593 4.332031-13.585937 1.789063-12.230469-7.0625-27.742188-5.019532-37.726563 4.964844-9.984375 9.984374-12.027343 25.496093-4.96875 37.726562 2.542969 4.402344 1.808594 9.988281-1.789062 13.585938-3.59375 3.59375-9.183594 4.332031-13.585938 1.789062-12.226562-7.0625-27.738281-5.019531-37.726562 4.964844-9.980469 9.984375-12.023438 25.5-4.964844 37.726562 2.542969 4.402344 1.808594 9.992188-1.789063 13.585938-3.59375 3.597656-9.183593 4.332031-13.585937 1.789062-12.230469-7.0625-27.742187-5.019531-37.726563 4.96875-9.984374 9.984375-12.027343 25.496094-4.964843 37.722656 2.542969 4.40625 1.804687 9.992188-1.789063 13.585938-3.597656 3.597656-9.183594 4.332031-13.589844 1.789062-4.78125-2.757812-10.894531-1.121093-13.65625 3.660157-2.761718 4.785156-1.121093 10.898437 3.660157 13.660156 4.867187 2.808594 10.25 4.175781 15.601562 4.175781 8.097657 0 16.113281-3.132812 22.125-9.144531zm0 0"/><path d="m197.027344 188.375-.472656.070312c-5.457032.851563-9.1875 5.964844-8.335938 11.421876.769531 4.933593 5.023438 8.457031 9.867188 8.457031.511718 0 1.03125-.039063 1.554687-.121094l.316406-.046875c5.464844-.808594 9.238281-5.894531 8.425781-11.355469-.808593-5.464843-5.894531-9.238281-11.355468-8.425781zm0 0"/><path d="m140.386719 219.660156.320312-.050781c5.460938-.808594 9.234375-5.890625 8.425781-11.355469-.808593-5.460937-5.898437-9.238281-11.355468-8.425781l-.472656.074219c-5.457032.851562-9.191407 5.964844-8.339844 11.421875.773437 4.933593 5.027344 8.457031 9.867187 8.457031.515625 0 1.035157-.039062 1.554688-.121094zm0 0"/><path d="m126.253906 259.089844-.398437.058594c-5.453125.851562-9.191407 5.960937-8.339844 11.417968.765625 4.9375 5.023437 8.464844 9.867187 8.464844.511719 0 1.027344-.039062 1.546876-.121094l.398437-.0625c5.453125-.847656 9.191406-5.960937 8.339844-11.417968-.847657-5.453126-5.960938-9.195313-11.414063-8.339844zm0 0"/><path d="m69.757812 290.351562.226563-.035156.023437-.003906c5.464844-.8125 9.21875-5.894531 8.410157-11.355469-.8125-5.464843-5.910157-9.234375-11.375-8.417969l-.515625.078126c-5.449219.890624-9.144532 6.03125-8.253906 11.480468.804687 4.902344 5.046874 8.386719 9.859374 8.386719.535157 0 1.078126-.042969 1.625-.132813zm0 0"/><path d="m55.621094 329.78125-.539063.082031c-5.449219.890625-9.148437 6.027344-8.257812 11.476563.796875 4.90625 5.039062 8.394531 9.855469 8.394531.53125 0 1.074218-.042969 1.621093-.132813l.25-.039062c5.460938-.808594 9.234375-5.894531 8.425781-11.355469-.808593-5.460937-5.898437-9.242187-11.355468-8.425781zm0 0"/><path d="m267.726562 117.671875-.46875.070313c-5.457031.851562-9.1875 5.964843-8.335937 11.421874.769531 4.933594 5.023437 8.457032 9.867187 8.457032.511719 0 1.03125-.039063 1.554688-.121094l.324219-.046875c5.460937-.8125 9.230469-5.898437 8.417969-11.363281-.8125-5.460938-5.894532-9.234375-11.359376-8.417969zm0 0"/><path d="m211.09375 148.957031.386719-.0625c5.457031-.847656 9.195312-5.960937 8.34375-11.414062-.847657-5.457031-5.960938-9.199219-11.414063-8.34375l-.402344.0625c-5.457031.851562-9.1875 5.964843-8.335937 11.421875.769531 4.933594 5.023437 8.457031 9.867187 8.457031.511719 0 1.03125-.039063 1.554688-.121094zm0 0"/><path d="m339.492188 66.921875c.511718 0 1.03125-.042969 1.554687-.125l.277344-.039063s.046875-.007812.046875-.007812c5.460937-.8125 9.207031-5.894531 8.394531-11.355469-.8125-5.460937-5.910156-9.226562-11.378906-8.417969l-.425781.0625c-5.457032.851563-9.1875 5.964844-8.335938 11.421876.769531 4.933593 5.027344 8.460937 9.867188 8.460937zm0 0"/><path d="m280.238281 78.375c.535157 0 1.078125-.042969 1.621094-.132812l.253906-.039063c5.460938-.808594 9.234375-5.890625 8.425781-11.355469-.808593-5.460937-5.894531-9.234375-11.355468-8.425781l-.539063.082031c-5.449219.890625-9.148437 6.027344-8.261719 11.480469.800782 4.902344 5.042969 8.390625 9.855469 8.390625zm0 0"/><path d="m294.621094 363.386719-21.941406 21.941406c-3.90625 3.90625-3.90625 10.238281 0 14.144531 1.953124 1.949219 4.511718 2.925782 7.070312 2.925782s5.117188-.976563 7.070312-2.925782l21.941407-21.945312c3.90625-3.902344 3.90625-10.234375 0-14.140625s-10.234375-3.90625-14.140625 0zm0 0"/><path d="m252.367188 405.640625-.191407.191406c-3.90625 3.90625-3.90625 10.234375 0 14.140625 1.953125 1.953125 4.511719 2.929688 7.070313 2.929688s5.117187-.976563 7.070312-2.929688l.191406-.1875c3.902344-3.90625 3.902344-10.238281 0-14.144531-3.90625-3.902344-10.238281-3.902344-14.140624 0zm0 0"/></svg>